<?xml version="1.0" standalone="no"?>
<!DOCTYPE svg PUBLIC "-//W3C//DTD SVG 20010904//EN"
 "http://www.w3.org/TR/2001/REC-SVG-20010904/DTD/svg10.dtd">
<svg version="1.0" xmlns="http://www.w3.org/2000/svg"
 width="162.000000pt" height="108.000000pt" viewBox="0 0 162.000000 108.000000"
 preserveAspectRatio="xMidYMid meet">

<g transform="translate(0.000000,108.000000) scale(0.100000,-0.100000)"
fill="#000000" stroke="none">
<path d="M0 540 l0 -540 810 0 810 0 0 540 0 540 -810 0 -810 0 0 -540z m1098
323 c-10 -247 6 -289 107 -287 l55 2 0 -44 0 -44 -65 0 c-78 0 -122 16 -157
58 -35 42 -48 109 -48 251 0 131 0 131 -65 131 -31 0 -34 -3 -40 -41 -4 -22
-4 -119 0 -215 l7 -174 -58 0 -59 0 3 215 4 215 -29 0 c-15 0 -44 -3 -65 -6
l-36 -6 -4 -152 c-3 -143 -4 -153 -30 -197 -34 -57 -81 -79 -173 -79 -61 0
-65 1 -65 23 0 12 3 32 6 45 6 19 11 22 35 17 16 -4 44 -2 63 5 54 17 61 48
60 253 l0 177 279 0 280 0 -5 -147z m462 -523 c0 -20 -7 -20 -750 -20 -743 0
-750 0 -750 20 0 20 7 20 750 20 743 0 750 0 750 -20z m-1110 -173 c0 -58 -12
-77 -47 -77 -28 0 -30 16 -3 23 17 4 20 14 20 56 0 39 4 51 15 51 11 0 15 -13
15 -53z m186 1 c9 -29 19 -59 22 -65 2 -8 -4 -13 -16 -13 -11 0 -22 8 -25 20
-7 26 -43 26 -50 0 -3 -11 -12 -20 -21 -20 -20 0 -20 1 5 71 18 49 26 59 45
59 18 0 26 -10 40 -52z m166 10 l27 -42 -6 42 c-5 36 -3 42 13 42 17 0 19 -8
19 -65 0 -54 -3 -65 -17 -65 -9 0 -27 17 -40 38 l-23 37 -3 -37 c-2 -25 -8
-38 -18 -38 -11 0 -14 15 -14 65 0 55 3 65 18 65 9 0 29 -19 44 -42z m178 -7
c0 -28 5 -53 10 -56 21 -13 40 17 40 61 0 32 4 44 15 44 11 0 15 -12 15 -49 0
-57 -18 -81 -60 -81 -38 0 -60 32 -60 87 0 36 3 43 20 43 17 0 20 -7 20 -49z
m250 34 c0 -11 -7 -14 -25 -9 -34 8 -32 -11 3 -28 30 -15 42 -55 20 -69 -21
-14 -90 -11 -85 4 2 6 16 11 30 9 38 -4 42 15 7 33 -20 10 -30 23 -30 39 0 30
7 36 47 36 23 0 33 -5 33 -15z"/>
<path d="M585 170 c-8 -13 -1 -24 14 -19 6 3 7 10 2 18 -6 10 -10 10 -16 1z"/>
</g>
</svg>
